<svg viewBox="0 0 100 100" xmlns="http://www.w3.org/2000/svg">
    <defs>
        <linearGradient id="lipsGradient" x1="0%" y1="0%" x2="100%" y2="0%">
            <stop offset="0%" style="stop-color:#ff4757;stop-opacity:1" />
            <stop offset="100%" style="stop-color:#ff6b6b;stop-opacity:1" />
        </linearGradient>
        <filter id="glow">
            <feGaussianBlur stdDeviation="2" result="coloredBlur"/>
            <feMerge>
                <feMergeNode in="coloredBlur"/>
                <feMergeNode in="SourceGraphic"/>
            </feMerge>
        </filter>
    </defs>
    <g id="flying-kiss" filter="url(#glow)">
        <!-- Main lips shape -->
        <path fill="url(#lipsGradient)" 
              d="M50,30 
                 C35,30 20,35 20,45 
                 C20,60 35,70 50,70 
                 C65,70 80,60 80,45 
                 C80,35 65,30 50,30 Z"/>
        
        <!-- Lip detail -->
        <path fill="#ff9a9e" 
              d="M50,40 
                 C40,40 30,42 30,45 
                 C30,55 40,60 50,60 
                 C60,60 70,55 70,45 
                 C70,42 60,40 50,40 Z"/>
        
        <!-- Highlight -->
        <circle fill="#ffffff" cx="35" cy="42" r="2" opacity="0.6"/>
        <circle fill="#ffffff" cx="65" cy="42" r="1.5" opacity="0.4"/>
    </g>
</svg>
