<svg version="1.1" id="Layer_1" xmlns="http://www.w3.org/2000/svg" xmlns:xlink="http://www.w3.org/1999/xlink" x="0px" y="0px"
	 width="100%" viewBox="0 0 720 1024" enable-background="new 0 0 720 1024" xml:space="preserve">
<path fill="#ff4757" opacity="1.000000" stroke="none" 
	d="
M482.106812,261.103485 
	C475.778320,269.272675 466.905670,273.954132 457.889648,278.233368 
	C449.484528,282.222656 440.673401,285.351654 432.232056,289.270874 
	C425.489594,292.401306 418.320465,293.421173 410.571106,294.126312 
	C411.855804,297.493774 413.285095,300.187469 411.725800,302.872009 
	C414.107086,304.519684 416.164856,304.106354 418.037323,303.621216 
	C429.536163,300.641937 441.300812,299.343475 453.082611,298.697723 
	C459.432861,298.349670 466.091705,297.373901 472.244446,300.141052 
	C476.984406,302.272827 480.082123,298.699280 482.096161,296.260254 
	C488.193939,288.875732 496.264771,286.689270 504.998077,284.918640 
	C521.770142,281.518311 533.830505,271.586365 542.096069,256.796173 
	C542.959473,255.251266 542.979919,253.603729 542.825317,251.936630 
	C541.944275,242.435791 542.442871,233.107773 544.843262,223.772064 
	C546.803284,216.149338 545.724915,208.181168 546.014893,200.367020 
	C546.049988,199.422699 545.649292,198.343231 546.698853,197.673950 
	C547.049255,197.673950 547.423767,197.561844 547.670471,197.691971 
	C549.401245,198.604721 549.047668,202.397873 552.252319,201.194077 
	C555.301270,200.048828 554.144653,197.423233 554.104187,195.169937 
	C553.973816,187.911346 555.560059,180.802032 558.169556,174.232681 
	C562.233887,164.001053 556.462219,156.158249 553.041748,147.735779 
	C552.022766,145.226486 549.898254,146.160416 548.395081,148.183228 
	C545.300964,152.346939 546.422424,157.269791 546.444153,161.703751 
	C546.483459,169.734665 545.494751,177.640457 544.945801,185.597229 
	C544.690430,189.298828 543.500000,192.370270 538.205017,192.487091 
	C539.251587,186.977737 540.271729,181.850861 541.192322,176.706161 
	C542.678833,168.398743 542.066284,160.123993 540.676819,151.868896 
	C540.504883,150.847534 540.214844,149.467102 539.311890,149.378113 
	C534.837891,148.937241 531.536011,144.338730 526.197998,146.448151 
	C520.658020,148.637344 515.119934,147.692368 510.820862,142.958145 
	C507.618378,146.363754 510.665192,150.447098 508.280182,153.360092 
	C506.184418,149.302551 510.086761,121.208992 513.811768,114.130280 
	C510.037750,111.667099 509.050201,107.852661 508.748108,103.481499 
	C508.216522,95.790543 506.571991,88.344124 502.691223,81.509598 
	C501.773834,79.894012 500.470581,78.092934 501.914124,75.316055 
	C505.382385,78.378433 509.239075,80.869354 511.842194,84.308968 
	C515.255310,88.818863 519.617676,92.002182 523.981689,95.281425 
	C530.448730,100.140976 534.204712,106.488106 535.364258,114.492912 
	C536.185181,120.159912 538.835754,125.313698 541.251831,130.326050 
	C543.297119,134.569153 548.816406,134.082413 552.854797,134.595551 
	C562.057556,135.764908 571.318115,137.221588 580.672241,136.042770 
	C583.373657,135.702347 584.506226,137.479675 585.456665,139.566559 
	C589.509033,148.464661 590.358154,157.275330 586.123169,166.534790 
	C581.565491,176.499786 576.607361,186.338028 574.166992,197.171829 
	C572.573914,204.244202 573.542603,211.872665 569.429932,218.426941 
	C568.623169,219.712662 569.363586,221.369324 570.413269,222.580368 
	C570.846558,223.080276 571.311707,223.592422 571.860840,223.946091 
	C579.048340,228.574753 585.333862,233.804626 588.963196,242.053848 
	C591.500610,247.821350 597.824097,251.013885 600.899719,256.675629 
	C603.305237,261.103912 603.462280,264.742371 599.258362,268.600983 
	C587.736938,279.176147 577.267029,290.868683 564.717957,300.365662 
	C558.785217,304.855530 558.998291,306.237152 564.331726,311.155396 
	C568.124878,314.653229 571.830566,318.246490 575.650818,321.714020 
	C577.932922,323.785461 578.243347,325.813293 577.013855,328.782288 
	C573.080811,338.279510 567.140015,345.635437 557.358887,349.582916 
	C531.937500,359.842468 508.955353,374.213684 488.662506,392.514313 
	C480.339355,400.020355 471.479279,402.794403 460.932343,401.089874 
	C451.345398,399.540497 441.678925,400.456543 432.046722,399.513550 
	C420.513977,398.384430 409.905792,395.156433 399.864807,389.685974 
	C396.907074,388.074554 393.794769,387.026093 390.638306,385.948608 
	C387.636200,384.923859 386.076691,386.029297 385.501221,388.778992 
	C378.931854,420.169098 369.745544,451.050995 367.990265,483.367004 
	C367.067383,500.357819 366.425964,517.299866 368.173126,534.254089 
	C368.392883,536.386414 368.829437,538.537109 369.488739,540.574646 
	C370.717133,544.371033 372.460968,547.068298 376.806488,543.414551 
	C378.825897,541.716675 381.532257,541.686157 384.005981,541.985229 
	C395.188385,543.337463 404.713135,537.654785 414.849945,534.710571 
	C418.724030,533.585388 416.619995,530.663208 415.075256,528.774353 
	C409.822815,522.351868 405.148438,515.431580 404.511078,507.071259 
	C403.505310,493.878418 399.919830,480.572205 402.978424,467.433838 
	C405.791382,455.350525 410.971436,444.164093 423.282440,438.328430 
	C424.161926,437.911560 425.082336,437.289215 425.631409,436.513153 
	C430.192535,430.066437 436.999512,426.251984 443.477234,422.454590 
	C448.461639,419.532562 454.521149,418.156982 460.280396,416.924438 
	C466.131195,415.672333 471.855194,414.124664 477.480927,412.173187 
	C483.043701,410.243591 484.260681,410.872101 486.742615,416.051300 
	C489.383240,421.561615 492.402802,426.894501 495.373779,432.239929 
	C496.371521,434.035156 496.828400,435.923981 497.249786,437.881683 
	C499.341614,447.600464 497.121582,457.318420 497.280304,467.035248 
	C497.288147,467.516418 497.152588,468.057526 496.916656,468.476654 
	C491.716095,477.716217 488.231354,488.008636 481.412598,496.222534 
	C473.408264,505.864563 464.230835,514.351440 452.818115,520.043518 
	C446.868591,523.010803 441.150208,526.443481 434.810028,528.610779 
	C433.328674,529.117188 432.030640,530.159790 430.820740,531.450745 
	C440.452271,530.819702 450.723541,532.075684 458.328705,524.503662 
	C468.183167,514.692017 479.673981,513.346741 492.793762,514.950806 
	C508.617035,516.885437 521.937744,523.207031 533.954712,533.396851 
	C538.598206,537.334290 544.314209,540.032532 549.640442,543.125000 
	C551.429016,544.163513 553.558167,543.729858 555.519958,543.280640 
	C565.468994,541.002136 573.596985,544.896790 579.368103,552.287842 
	C582.464600,556.253601 584.031006,561.725403 585.454224,567.066711 
	C587.939331,576.393066 584.783020,585.000549 584.454895,593.927368 
	C584.115356,603.167419 585.630188,612.300171 587.602173,621.327820 
	C589.257935,628.907410 587.322266,630.913025 579.786621,629.425903 
	C572.159790,627.920654 564.557434,628.965271 556.964783,629.769470 
	C555.471558,629.927551 554.029358,630.542053 553.238098,632.001160 
	C552.362488,633.615906 550.922729,634.358887 549.218750,634.644226 
	C542.712708,635.733521 536.921204,638.274963 531.922180,642.669983 
	C531.181580,643.321106 529.718750,643.305908 528.585144,643.326660 
	C524.740234,643.396973 521.685852,644.221558 518.233765,646.829285 
	C514.036987,649.999451 507.831696,649.207886 503.081543,646.720703 
	C498.959320,644.562439 497.284973,645.535828 496.209167,649.437927 
	C494.117096,657.025940 491.627350,664.514832 490.702087,672.830872 
	C485.989380,671.189392 483.671692,667.371765 480.643951,664.492188 
	C478.009247,661.986328 475.865875,659.209167 471.600067,658.987976 
	C468.987610,658.852417 467.273102,656.088989 465.316437,654.294739 
	C463.071716,652.236328 461.552612,649.053711 457.673706,649.503418 
	C457.190582,649.559387 456.428986,648.919678 456.106781,648.407288 
	C448.813049,636.808533 436.402954,630.053833 428.673859,618.610962 
	C420.920013,607.131470 416.453766,594.792297 413.750549,581.534119 
	C413.156158,578.619019 412.970062,575.612854 412.711639,572.638550 
	C411.998657,564.431335 414.658997,557.606567 421.061066,552.274109 
	C423.027649,550.636108 425.032349,548.486206 423.368378,545.864441 
	C421.637238,543.136841 419.015656,544.474731 416.672302,545.504578 
	C411.325256,547.854370 406.169617,550.348816 401.915070,554.620850 
	C396.363892,560.194824 389.672760,558.698792 383.173981,556.568176 
	C375.348358,554.002625 372.102875,555.531677 371.029663,563.664307 
	C369.745941,573.392578 368.836029,583.206299 368.466461,593.009460 
	C368.065552,603.645447 367.321442,614.302612 368.111420,624.962097 
	C368.532196,630.639771 370.220123,635.732727 374.821594,639.460938 
	C376.073547,640.475342 377.078796,641.663147 376.471252,643.297485 
	C374.068512,649.760986 375.108765,655.863342 377.007446,662.367859 
	C378.348267,666.961304 378.277069,672.467834 375.126160,676.794128 
	C369.033813,685.159119 367.678101,694.335754 367.974762,704.538330 
	C368.584900,725.519470 368.449402,746.536133 368.078491,767.528625 
	C367.601898,794.500854 365.461884,821.444458 366.302704,848.440186 
	C367.162811,876.053894 368.406036,903.651428 370.856842,931.183228 
	C371.843781,942.270386 372.549957,953.383240 373.314423,964.489136 
	C373.474915,966.821289 373.575775,969.419189 371.191162,970.758911 
	C368.653992,972.184326 366.376373,970.827454 364.285980,969.319397 
	C358.861328,965.406067 355.907776,960.525757 355.596283,953.425964 
	C354.487335,928.149536 352.891266,902.893433 351.349182,877.637573 
	C350.599396,865.357361 350.029602,853.036804 348.523407,840.840088 
	C346.953400,828.126221 340.622131,817.053467 334.584320,805.975403 
	C331.162689,799.697449 328.312775,793.073181 322.808655,788.154846 
	C322.010284,787.441528 321.695801,786.186584 321.246460,785.348450 
	C321.840576,783.019897 324.578522,784.347595 325.380707,781.965576 
	C325.124634,778.986694 323.167969,776.320801 321.070221,773.765137 
	C319.569885,771.937195 317.558899,771.713745 315.701355,773.025635 
	C308.437561,778.155640 299.859680,778.620361 291.622803,780.699158 
	C285.729156,782.186523 279.867340,781.800720 274.119019,783.069946 
	C271.496674,783.649048 269.330536,782.338928 266.973297,781.511841 
	C265.359741,780.945618 263.204315,781.021118 261.564453,781.593140 
	C255.428360,783.733826 249.810669,780.527954 244.033890,779.809570 
	C241.390854,779.480774 238.699432,778.832275 235.934662,778.919434 
	C232.774475,779.019104 229.571625,779.409668 227.407806,776.160950 
	C226.572525,774.906860 224.977158,775.430420 223.669678,775.364624 
	C216.859772,775.022339 210.265076,775.013062 203.348816,773.010132 
	C196.734619,771.094666 188.660538,769.920044 181.531830,773.877563 
	C180.153946,774.642456 178.513046,775.920166 176.902435,774.666504 
	C175.178528,773.324646 175.866592,771.311340 176.211868,769.541504 
	C177.619507,762.326111 173.783371,757.489319 169.739487,752.008972 
	C166.664413,747.841675 162.130676,743.675598 163.001999,737.067505 
	C163.454529,733.635620 161.199127,730.017639 163.601990,726.462280 
	C169.308212,718.019104 175.448410,710.052429 185.158417,705.867798 
	C187.761200,704.746155 190.400604,703.826355 192.687012,701.154053 
	C189.582870,697.532959 184.612320,696.490784 181.510040,693.296875 
	C174.758408,686.345886 165.686859,681.852783 160.659912,673.045959 
	C158.160919,668.667969 153.864548,665.765076 149.917404,662.705627 
	C146.733475,660.237671 144.951904,657.486389 144.681351,653.115356 
	C144.357224,647.878540 140.691223,643.741699 137.705460,639.547546 
	C135.698792,636.728699 132.964310,634.213440 135.411606,630.229004 
	C135.792618,629.608704 135.468887,628.108093 134.935715,627.444763 
	C130.695099,622.168457 131.958542,615.709167 131.041260,609.744690 
	C130.621353,607.014282 131.173645,604.381165 134.257736,603.137390 
	C135.991745,602.438049 136.564072,601.037354 136.807114,599.210388 
	C137.667725,592.740723 139.193130,586.496155 142.991699,580.964783 
	C143.868423,579.688110 143.889938,577.813110 144.263382,576.203796 
	C145.835480,569.429260 148.344269,566.635498 155.261368,567.280823 
	C162.926651,567.995911 170.557053,567.099426 178.066589,566.865662 
	C184.966614,566.650879 192.681702,568.740479 198.582672,566.177979 
	C204.983307,563.398621 209.043747,567.212158 214.130264,567.446106 
	C223.863312,567.893738 231.154190,573.365540 239.202118,577.420715 
	C240.075836,577.860901 241.257019,578.640076 241.936768,578.367310 
	C247.922333,575.966675 250.843399,581.194092 255.140823,583.219116 
	C265.916290,588.296692 271.015045,598.343018 276.804565,607.529968 
	C281.968170,615.723755 283.826996,625.426819 285.260803,634.987732 
	C286.245850,641.556213 286.657227,648.208923 287.456573,654.808105 
	C287.669128,656.563110 288.366119,658.259460 289.186554,661.238647 
	C292.467102,656.658813 295.630432,653.253906 297.602783,649.260681 
	C300.847992,642.690247 306.356049,638.141174 311.796356,634.139709 
	C318.007141,629.571533 324.273682,624.394653 333.153442,624.351624 
	C338.122437,624.327576 343.120636,621.973938 348.290131,621.507446 
	C351.167114,621.247864 352.091187,619.210571 352.220764,616.604492 
	C353.287720,595.145264 354.871948,573.698120 353.482086,552.188538 
	C353.127716,546.704346 352.677979,541.205872 352.745850,535.719788 
	C352.838074,528.263367 350.477753,522.017944 344.955780,516.979919 
	C344.111664,516.209778 343.128265,515.481323 343.135925,514.139465 
	C343.265533,513.840027 343.336945,513.342712 343.542358,513.279297 
	C351.351105,510.867737 352.649200,505.040344 352.829834,497.696808 
	C353.660095,463.938385 360.075195,430.950500 367.369141,398.110352 
	C367.795959,396.188751 368.203247,394.262848 368.600525,392.427124 
	C366.094513,390.270996 363.922302,391.474670 361.815704,392.281158 
	C355.011444,394.886047 348.999359,398.683319 344.417053,404.444977 
	C341.795776,407.740875 339.182465,407.980743 335.350098,406.023682 
	C320.233459,398.304077 307.173645,387.759613 294.256012,376.978424 
	C292.081299,375.163300 291.300873,372.719788 290.854004,369.977722 
	C289.718414,363.009399 287.689789,361.310638 280.921204,359.683411 
	C273.487885,357.896362 266.000214,356.259247 258.635803,354.292755 
	C248.595856,351.611755 241.913162,343.791290 235.177902,336.403931 
	C234.364914,335.512238 233.590347,334.137512 235.471817,332.370270 
	C240.140976,338.156494 246.963501,338.365723 253.689926,339.373962 
	C258.323792,340.068573 262.511322,342.823242 265.822815,346.045807 
	C270.323334,350.425415 276.932983,349.350372 281.572937,353.121002 
	C286.425049,357.064026 292.071503,360.149353 293.373138,367.152161 
	C293.988800,370.464478 296.612854,372.152100 299.817719,372.615967 
	C312.965820,374.518921 326.103485,376.528381 339.292206,378.102844 
	C346.396118,378.950928 351.372467,374.908966 352.716339,368.336731 
	C353.301666,365.474152 352.765533,363.089813 350.669250,361.023926 
	C348.893646,359.274170 347.177795,357.462524 345.467712,355.647888 
	C343.785248,353.862579 342.143311,352.039032 340.490723,350.240021 
	C341.722382,347.354645 344.157257,347.633728 346.118195,348.034973 
	C359.621094,350.798126 373.339508,348.614838 386.886139,349.988312 
	C391.669403,350.473297 396.469879,352.107178 401.169922,351.800049 
	C409.171478,351.277161 417.222961,355.833008 424.980011,351.996063 
	C429.680908,349.670837 434.146851,346.662506 437.936554,342.862427 
	C441.129395,339.660767 444.998932,337.919006 449.527557,337.816986 
	C453.971008,337.716888 457.575714,338.837128 459.642792,343.470703 
	C461.257629,347.090576 464.557770,349.608032 467.887970,352.413330 
	C463.201813,356.095184 457.243500,356.519257 453.356262,360.828217 
	C456.737915,365.644348 461.075928,369.210236 465.384979,372.776794 
	C467.616455,374.623749 470.207489,373.932343 472.519135,372.950409 
	C481.375305,369.188263 489.117676,363.670441 495.493835,356.554443 
	C498.328430,353.390961 501.983673,350.989258 504.215332,347.194000 
	C504.128876,351.476929 502.948059,355.156708 499.596313,358.073181 
	C497.349976,360.027710 495.289368,362.239227 493.399933,364.544189 
	C492.241852,365.956909 491.416870,367.872620 492.786987,369.605591 
	C494.057068,371.212006 495.885010,370.591125 497.409576,369.949768 
	C503.813965,367.255707 510.233185,364.584808 516.537598,361.668945 
	C522.086060,359.102692 527.394470,356.009369 532.976501,353.525543 
	C543.651489,348.775604 549.779846,340.345123 553.014282,329.508087 
	C553.872742,326.631805 554.608276,323.753601 555.973938,321.048340 
	C557.746216,317.537659 558.536560,313.916321 557.257141,309.946228 
	C556.483337,307.545135 556.257019,304.653839 557.770813,302.654144 
	C562.067932,296.977722 563.534058,289.940857 567.244629,284.022705 
	C569.945312,279.715332 571.356934,274.998169 571.987671,269.366821 
	C563.245728,270.619507 557.488281,275.279205 554.229004,282.888702 
	C552.079773,287.906433 550.577820,293.208679 548.914734,298.424561 
	C547.986755,301.334717 547.907898,304.337006 548.890625,307.284180 
	C550.456726,311.980957 548.121216,315.650055 544.067993,316.009827 
	C532.354553,317.049622 525.709473,325.894073 517.495422,332.172272 
	C512.449097,336.029327 508.396820,340.780548 501.016846,339.204254 
	C497.854767,338.528900 495.602325,341.261017 493.374023,343.289307 
	C489.761505,346.577576 486.357483,350.180023 481.881561,352.109009 
	C480.721252,350.910339 480.930084,349.880829 481.577240,349.492371 
	C485.643402,347.051880 487.868683,341.928345 491.355713,340.113068 
	C496.808014,337.274719 499.902863,332.022247 505.194153,329.418701 
	C506.533112,328.759857 507.915649,327.941315 508.408661,326.417969 
	C509.038788,324.471069 508.840179,321.991974 506.286163,322.767670 
	C501.015900,324.368347 499.808807,318.834106 496.185547,317.758301 
	C495.859528,317.661530 495.408997,316.755341 495.540161,316.530151 
	C497.777802,312.688507 499.592590,308.390625 502.643219,305.333466 
	C503.905609,304.068420 506.602295,302.496490 509.198425,302.268280 
	C510.459808,302.157410 511.368469,301.282776 511.193481,299.872986 
	C511.045990,298.684692 510.023529,298.298615 509.003876,298.188904 
	C505.632141,297.826202 502.011719,297.576172 499.586517,300.272400 
	C493.758881,306.751312 485.603394,308.289764 477.965118,310.647003 
	C471.188568,312.738251 465.045959,315.457733 459.444366,319.920929 
	C447.439575,329.486023 432.837585,331.485901 418.196716,333.068939 
	C417.147827,333.182312 415.801392,333.401184 415.148865,331.874664 
	C416.235687,329.683777 418.436615,330.018219 420.290649,329.731567 
	C430.201141,328.199249 439.915527,326.029297 448.824432,321.180573 
	C452.351288,319.261047 456.988312,316.881134 456.149017,312.823883 
	C455.419556,309.297638 450.102234,310.525269 446.870453,310.178558 
	C436.620544,309.078918 426.307251,308.581238 416.025360,307.764008 
	C410.486420,307.323761 409.302765,308.314819 409.677094,313.902832 
	C409.833618,316.239380 408.978638,317.866577 406.947266,318.723938 
	C399.817841,321.733032 392.118805,322.329254 384.611450,323.657501 
	C382.544739,324.023132 380.429962,322.808899 378.737488,321.286804 
	C374.912842,317.847229 375.281860,314.336823 379.711121,311.651550 
	C382.014587,310.255005 385.119843,309.877136 386.677368,306.189697 
	C372.190826,302.940613 355.033112,307.212952 345.451263,290.614716 
	C350.809204,290.200684 352.593384,295.337982 356.889465,296.419556 
	C357.515442,292.805054 359.750549,293.493225 362.319855,294.390228 
	C368.903717,296.688782 375.550110,298.808014 382.168671,301.007446 
	C384.125793,301.657806 386.911499,302.419098 387.566254,300.330811 
	C389.305389,294.784393 394.041656,295.596497 398.013580,294.351440 
	C384.180054,291.752441 370.444855,288.577728 356.254608,290.363251 
	C354.009644,290.645752 352.565399,290.307007 351.062439,288.551941 
	C343.029785,279.171875 333.666901,271.185547 324.011292,263.566559 
	C321.299866,261.427032 318.580872,258.260376 313.883789,260.439270 
	C315.275574,256.537231 313.559357,253.994629 310.916626,252.062958 
	C305.863831,248.369690 305.487701,242.571396 304.722595,237.304199 
	C304.397339,235.065033 307.166290,232.477982 308.208679,229.918549 
	C310.781372,223.601501 309.170776,220.015839 302.563690,216.752670 
	C299.776489,217.881989 302.198029,221.732605 299.478058,222.882309 
	C298.378113,222.493591 298.120331,221.578003 298.311584,220.816513 
	C299.966034,214.228500 296.527222,208.860901 294.165283,203.254028 
	C291.321472,196.503281 288.102448,189.861694 287.899628,182.344757 
	C287.636719,172.602844 291.267303,164.601700 299.648193,157.611862 
	C300.064880,163.291946 302.080780,168.212799 300.267242,173.111664 
	C294.508942,188.666245 296.870514,202.839264 306.784882,215.925171 
	C307.377472,216.707321 308.184753,217.940750 308.884003,217.935211 
	C317.960907,217.863434 320.443451,227.749573 327.773254,230.287903 
	C333.820770,232.382172 337.746429,236.470795 339.927887,242.670868 
	C341.316467,246.617432 345.971649,248.164429 348.731445,251.750000 
	C345.445099,253.685135 343.364716,250.967850 340.804596,250.119781 
	C342.952301,260.158051 333.249268,255.820847 330.025726,259.235931 
	C335.640350,268.842468 357.279480,279.420319 369.267303,275.625244 
	C367.278259,274.174072 365.290222,272.802521 362.885864,271.986420 
	C361.508881,271.519043 360.342682,270.159882 360.633759,268.450653 
	C360.944366,266.626556 362.592285,266.367920 364.095856,266.157196 
	C365.939789,265.898773 367.755310,266.117981 369.518951,266.715332 
	C373.280945,267.989563 375.731598,269.945312 373.099609,274.178131 
	C376.373077,276.736206 379.653595,275.027588 382.539032,274.612030 
	C387.906311,273.839050 392.726379,274.755493 396.547302,278.237274 
	C402.309875,283.488373 409.179657,283.216553 415.817078,282.376312 
	C426.364014,281.041107 437.158691,280.283844 447.225616,276.761139 
	C457.268250,273.246918 468.508423,272.080261 476.351929,263.500854 
	C477.500977,262.244019 479.554962,261.814545 481.593811,260.997742 
	C481.997437,260.993256 482.106812,261.103485 482.106812,261.103485 
M352.900421,783.495789 
	C352.986145,756.531555 353.258820,729.564026 352.734161,701.158081 
	C347.022675,705.155273 342.645264,707.790710 339.510895,711.992004 
	C335.180939,717.795898 329.623596,720.915283 322.205322,721.444214 
	C316.809357,721.828918 311.164551,721.633179 306.089966,724.209229 
	C303.544617,725.501404 302.071991,724.441895 300.946716,722.116943 
	C298.188080,716.417419 291.599548,715.190491 288.011871,709.476379 
	C285.936401,714.104919 283.530243,717.956726 287.349365,720.625488 
	C291.788239,723.727478 293.343903,732.634338 302.883057,727.947876 
	C299.334290,734.377319 302.108490,738.731079 305.748718,742.993408 
	C307.239349,744.738770 308.323151,746.895264 309.307312,748.997986 
	C312.931183,756.740784 318.145203,763.460632 322.989868,770.407898 
	C325.246246,773.643555 327.409821,777.097717 331.604645,778.396667 
	C333.113831,778.864014 333.495789,780.592285 334.321899,781.829651 
	C338.693329,788.377380 341.019165,795.963928 345.027313,802.683044 
	C346.338470,804.880981 347.473480,807.420898 350.827118,807.860352 
	C353.242371,800.074036 352.355927,792.215820 352.900421,783.495789 
M530.473206,288.501984 
	C528.178833,289.786865 531.943359,291.320923 530.418213,292.589996 
	C528.001770,293.582397 525.298706,292.183533 523.165649,293.769684 
	C522.349243,295.131409 522.950012,296.458649 523.029236,297.738892 
	C523.378052,303.375122 524.624023,304.314270 530.125732,302.898895 
	C531.414734,302.567291 532.322632,302.633331 533.283386,303.494415 
	C535.858337,305.802277 537.734680,304.625183 539.427673,302.263763 
	C540.776917,300.381897 542.562744,298.738739 543.567566,296.700165 
	C545.513855,292.751678 547.180969,288.647583 548.668884,284.502136 
	C549.113098,283.264740 549.275574,281.378326 547.523804,280.565796 
	C546.049866,279.882050 545.006531,280.864288 544.138794,281.927887 
	C542.563660,283.858582 540.375854,284.833710 538.064087,284.919434 
	C535.163208,285.026978 533.063293,286.404266 530.473206,288.501984 
M364.136841,355.949829 
	C362.706451,355.139069 361.277679,354.354858 359.772675,356.360321 
	C360.920044,358.182739 362.463531,359.130554 364.557983,358.409119 
	C365.497864,358.085358 365.134338,357.084442 364.136841,355.949829 
z"/>
<path fill="#ff4757" opacity="1.000000" stroke="none" 
	d="
M436.471954,267.691101 
	C427.107208,269.177979 418.175751,271.427887 409.152802,269.018921 
	C408.970520,266.754120 410.362640,266.614349 411.387970,266.323517 
	C423.270813,262.953125 434.647247,258.336426 445.571533,252.586029 
	C447.806641,251.409470 450.181213,250.511993 452.700653,250.433960 
	C464.246796,250.076370 471.374908,242.849197 476.537415,233.883148 
	C480.818146,226.448547 483.648529,218.160858 486.904999,210.162933 
	C488.295898,206.746933 490.017426,203.549606 491.838257,200.371765 
	C495.012848,194.831024 495.439026,188.714523 495.220245,182.548019 
	C495.004211,176.459702 496.989502,170.849533 498.094818,165.075104 
	C498.847229,165.145187 499.413177,165.118317 499.433594,165.211166 
	C500.757904,171.244797 505.525757,175.751144 506.504700,182.060883 
	C507.384308,187.730225 506.389099,193.053543 505.035614,198.338562 
	C502.363892,208.771378 500.751465,219.539352 496.245880,229.421555 
	C494.422607,233.420578 493.842896,237.677002 492.659180,242.116882 
	C489.547638,242.025345 486.775299,242.766281 484.479523,244.952606 
	C471.096283,257.697693 454.469574,263.657440 436.471954,267.691101 
z"/>
<path fill="#ff4757" opacity="1.000000" stroke="none" 
	d="
M473.066742,218.995911 
	C467.465973,233.558548 454.563324,240.319916 443.349701,248.706619 
	C439.821136,251.345657 435.953613,253.682907 431.450226,254.700485 
	C430.706329,252.679657 432.280334,251.959793 433.208618,251.450806 
	C439.089203,248.226364 443.490936,243.002945 449.294037,239.708328 
	C455.584167,236.137238 457.232025,229.733276 459.044098,223.528214 
	C460.833679,217.400116 462.784454,212.054565 469.354279,208.764893 
	C476.903778,204.984680 478.013794,196.642197 472.733521,191.504669 
	C470.499146,192.262238 470.414154,194.555435 469.503387,196.219543 
	C468.576355,197.913345 468.429626,200.094772 465.413177,201.452362 
	C467.063416,185.081436 473.853912,169.377899 467.118256,152.950195 
	C470.387970,152.945663 471.074982,154.883728 472.037689,156.504471 
	C477.250336,165.279480 477.751404,175.159134 478.529633,184.927475 
	C478.725861,187.390869 478.605743,189.894058 478.992798,192.368378 
	C480.479309,201.871429 477.701538,210.453064 473.066742,218.995911 
z"/>
<path fill="#ff4757" opacity="1.000000" stroke="none" 
	d="
M335.293030,226.524475 
	C329.383972,211.416763 327.358368,196.115570 327.786438,180.313583 
	C327.955841,174.059418 326.577026,167.760422 329.004089,161.657318 
	C329.290863,160.936234 329.113739,159.982483 330.568146,159.526138 
	C330.568146,163.325760 330.568146,167.015167 330.568146,171.114838 
	C334.951202,170.922318 334.995209,173.639465 335.260864,176.681747 
	C335.880280,183.776016 332.736053,190.845718 335.337341,197.564728 
	C334.816193,199.262756 332.748901,197.881348 332.582397,199.436874 
	C338.503387,210.568680 340.332153,223.359375 347.272614,233.969193 
	C348.109833,235.249069 348.452118,236.731949 346.859528,238.438354 
	C341.996582,235.661606 337.592590,232.449234 335.293030,226.524475 
z"/>
<path fill="#ff4757" opacity="1.000000" stroke="none" 
	d="
M360.331299,247.689621 
	C357.179901,245.136230 352.899139,244.763794 350.295929,240.214432 
	C360.354004,241.574356 369.801392,239.592651 379.116486,242.028961 
	C378.840057,243.147812 378.854523,243.530716 378.672913,243.754105 
	C377.307068,245.433624 373.747162,245.758972 374.693420,248.757919 
	C375.530670,251.411392 378.394196,251.486191 380.874268,252.088943 
	C385.731323,253.269379 390.899200,253.826767 393.469086,259.528534 
	C395.275665,263.536713 399.479492,264.868011 404.380249,265.237305 
	C401.737701,268.090881 399.382629,267.641754 396.777405,266.646790 
	C384.010681,261.771057 371.959076,255.535522 360.331299,247.689621 
z"/>
<path fill="#ff4757" opacity="1.000000" stroke="none" 
	d="
M291.678650,289.321472 
	C294.911316,293.196777 298.461823,296.685883 293.674438,301.805817 
	C290.402863,301.592834 288.301178,298.682739 286.506317,296.557129 
	C282.190002,291.445312 275.424622,288.406250 274.215790,280.451172 
	C273.470581,275.547119 268.699982,272.352753 265.203003,268.784821 
	C262.517670,266.044983 259.081085,263.715485 259.063080,258.979401 
	C269.657104,269.271027 283.695953,275.712158 291.678650,289.321472 
z"/>
<path fill="#ff4757" opacity="1.000000" stroke="none" 
	d="
M368.752869,184.201874 
	C363.857697,185.656097 363.658539,181.288559 362.061401,178.914474 
	C360.450165,176.519409 362.128784,174.868164 364.296082,173.834641 
	C367.645599,172.237274 370.337555,169.970657 372.830200,167.163269 
	C376.158844,163.414276 383.811005,163.329910 390.406494,166.592117 
	C385.598572,171.524353 378.695892,173.863724 375.593414,179.783875 
	C373.220428,179.952240 374.239746,177.842407 373.007141,177.341644 
	C370.903198,179.038208 369.960388,181.509842 368.752869,184.201874 
z"/>
<path fill="#ff4757" opacity="1.000000" stroke="none" 
	d="
M352.111359,197.650574 
	C350.935211,199.325073 350.362335,198.350815 349.976135,197.417099 
	C348.771118,194.503738 347.480621,191.643127 347.659821,188.319061 
	C347.802429,185.673660 347.779205,182.964264 347.373932,180.354019 
	C345.724335,169.729904 348.685638,164.346252 360.283203,159.209717 
	C356.361816,172.246826 351.823547,184.339371 352.111359,197.650574 
z"/>
<path fill="#ff4757" opacity="1.000000" stroke="none" 
	d="
M406.171021,176.581650 
	C404.763458,179.670685 406.099670,183.989120 402.290771,185.457367 
	C397.251617,187.399872 391.872101,187.990173 386.684509,186.373199 
	C384.887329,185.813004 383.754272,186.204697 382.409637,186.827026 
	C379.488312,181.463760 379.488312,181.463760 386.578613,176.026917 
	C389.458496,177.748291 387.076569,180.169968 387.449554,183.068314 
	C393.480103,179.850418 398.419098,173.826431 406.171021,176.581650 
z"/>
<path fill="#ff4757" opacity="1.000000" stroke="none" 
	d="
M398.302338,332.563110 
	C400.596497,332.769867 402.479675,332.945343 404.604156,333.143280 
	C403.575623,335.337860 401.944672,335.584930 400.597748,335.849030 
	C392.920624,337.354553 385.162964,338.259613 377.333527,337.625305 
	C375.371216,337.466309 372.357880,337.697388 372.411957,334.654480 
	C372.465027,331.670746 375.324738,331.180817 377.603424,331.087402 
	C384.405060,330.808594 391.204620,330.995544 398.302338,332.563110 
z"/>
<path fill="#ff4757" opacity="1.000000" stroke="none" 
	d="
M321.521973,206.366425 
	C318.546234,199.008011 321.154266,192.424728 321.427856,185.667175 
	C322.249786,185.625473 323.071747,185.583755 323.893677,185.542038 
	C323.874603,198.926483 327.951447,211.396164 331.574371,224.037247 
	C325.078308,219.982666 323.359955,213.375931 321.521973,206.366425 
z"/>
<path fill="#ff4757" opacity="1.000000" stroke="none" 
	d="
M316.092712,157.096634 
	C314.095673,157.804367 312.807190,159.415588 310.449554,159.142975 
	C310.104492,155.666901 311.363586,153.009796 313.659637,150.658371 
	C316.590240,147.657059 320.044434,145.363922 323.549591,143.128052 
	C324.543579,142.494034 325.620819,141.741058 326.758972,142.521805 
	C328.182556,143.498367 327.509369,144.878815 327.103333,146.133621 
	C326.847870,146.923035 326.501495,147.685883 326.286133,148.484955 
	C324.155579,156.389740 324.160919,156.391190 316.092712,157.096634 
z"/>
<path fill="#ff4757" opacity="1.000000" stroke="none" 
	d="
M212.887177,277.472809 
	C212.673599,278.804932 211.964066,279.241394 211.075150,278.865875 
	C206.525772,276.943848 202.992081,273.749451 202.167679,268.844910 
	C201.403488,264.298462 204.120697,260.817474 208.032028,256.614380 
	C209.273178,264.405579 208.670425,271.445312 212.887177,277.472809 
z"/>
<path fill="#ff4757" opacity="1.000000" stroke="none" 
	d="
M236.240891,111.215744 
	C235.515671,105.111938 236.126755,104.464668 241.726852,104.787109 
	C244.371872,104.939400 246.836823,105.556038 249.582855,107.473335 
	C246.285828,110.123413 242.981781,112.101868 240.160553,114.688385 
	C237.483215,117.142975 237.176727,113.317024 236.240891,111.215744 
z"/>
<path fill="#ff4757" opacity="1.000000" stroke="none" 
	d="
M458.127869,193.019470 
	C457.606049,199.225174 455.023102,203.904449 450.226318,207.615829 
	C452.446472,200.281937 454.718719,193.070786 454.531464,185.264130 
	C457.574005,187.194260 457.816437,189.913818 458.127869,193.019470 
z"/>
<path fill="#ff4757" opacity="1.000000" stroke="none" 
	d="
M431.640747,197.998169 
	C428.856750,193.687271 426.271759,189.649429 423.687225,185.611298 
	C422.436340,183.656845 421.087097,181.720078 422.892273,178.428009 
	C426.965454,184.535141 432.532837,189.019440 434.755341,195.849442 
	C435.427826,197.916077 435.199738,200.344940 431.640747,197.998169 
z"/>
<path fill="#ff4757" opacity="1.000000" stroke="none" 
	d="
M363.164398,163.151489 
	C366.444397,160.461533 369.243195,157.411072 374.639038,158.879715 
	C371.284851,164.394882 364.244873,164.061615 361.173187,170.317627 
	C360.228027,166.552200 361.689636,165.014282 363.164398,163.151489 
z"/>
<path fill="#ff4757" opacity="1.000000" stroke="none" 
	d="
M454.704285,214.497620 
	C451.229675,214.527985 452.559875,212.328705 453.023560,211.093658 
	C454.119812,208.173874 455.804840,205.558365 459.467072,202.706970 
	C460.137421,208.232346 458.832703,211.713287 454.704285,214.497620 
z"/>
<path fill="#ff4757" opacity="1.000000" stroke="none" 
	d="
M339.163757,181.383072 
	C337.340759,176.779160 338.738495,173.251862 342.050568,169.028275 
	C344.113861,174.235809 342.353180,178.101288 341.071716,181.940964 
	C340.882751,182.507111 339.901062,182.098145 339.163757,181.383072 
z"/>
<path fill="#ff4757" opacity="1.000000" stroke="none" 
	d="
M398.398193,170.130615 
	C400.498383,170.202835 402.378784,169.315948 404.178528,171.190552 
	C400.905975,174.054504 397.418304,174.791458 393.127655,173.544250 
	C393.714539,170.606750 396.072754,170.687225 398.398193,170.130615 
z"/>
<path fill="#ff4757" opacity="1.000000" stroke="none" 
	d="
M481.943329,260.937561 
	C484.603271,256.807709 488.825531,254.475327 492.755127,251.780121 
	C490.412140,255.874390 487.030548,258.857056 482.429382,260.995697 
	C482.106812,261.103485 481.997437,260.993256 481.943329,260.937561 
z"/>
</svg>